<?xml version="1.0" standalone="no"?>
<!DOCTYPE svg PUBLIC "-//W3C//DTD SVG 20010904//EN"
 "http://www.w3.org/TR/2001/REC-SVG-20010904/DTD/svg10.dtd">
<svg version="1.0" xmlns="http://www.w3.org/2000/svg"
 width="331.000000pt" height="331.000000pt" viewBox="0 0 331.000000 331.000000"
 preserveAspectRatio="xMidYMid meet">
<metadata>
Created by potrace 1.11, written by Peter Selinger 2001-2013
</metadata>
<g transform="translate(0.000000,331.000000) scale(0.100000,-0.100000)"
fill="#000000" stroke="none">
<path d="M0 1655 l0 -1655 1655 0 1655 0 0 1655 0 1655 -1655 0 -1655 0 0
-1655z m2700 1447 c84 -25 96 -31 105 -56 8 -23 6 -30 -8 -41 -13 -9 -16 -20
-12 -38 5 -19 2 -28 -14 -37 -12 -6 -21 -21 -21 -34 0 -24 -2 -24 -82 -24 -46
0 -98 6 -115 14 -39 16 -42 9 -8 -22 14 -13 25 -31 25 -40 0 -14 -7 -16 -45
-11 -35 5 -46 3 -54 -10 -8 -15 -14 -15 -49 -5 -58 18 -92 1 -57 -28 19 -16
19 -40 0 -40 -9 0 -32 7 -52 15 -19 8 -44 15 -54 15 -16 0 -15 -3 6 -25 43
-42 24 -75 -31 -55 -41 16 -47 12 -25 -16 31 -39 28 -64 -8 -64 -20 0 -30 -6
-34 -20 -3 -13 -14 -20 -29 -20 -13 0 -31 -9 -41 -20 -9 -11 -23 -20 -30 -20
-12 0 -31 -32 -55 -92 -6 -14 -20 -29 -31 -33 -25 -8 -26 -18 -5 -36 26 -21
82 -10 180 37 113 53 239 91 359 106 75 9 109 8 203 -5 l114 -17 101 -84 c174
-143 237 -222 191 -240 -19 -7 -42 4 -72 37 -20 21 -27 23 -51 14 -37 -14 -60
-4 -72 32 -6 16 -21 37 -35 46 -22 14 -25 14 -31 0 -3 -9 -1 -21 6 -28 16 -16
14 -47 -5 -54 -8 -3 -30 2 -47 12 -31 17 -34 16 -67 -4 -19 -12 -49 -28 -66
-35 -17 -8 -36 -22 -44 -30 -17 -22 -53 -20 -75 4 -23 26 -51 26 -58 0 -4 -14
-14 -20 -34 -20 -18 0 -33 -8 -43 -22 -36 -56 -60 -109 -60 -133 0 -37 -25
-33 -137 26 -71 37 -109 51 -136 50 -23 -1 -57 9 -84 24 -57 30 -73 23 -98
-40 -13 -34 -14 -50 -6 -58 6 -6 11 -23 11 -38 0 -21 -6 -28 -29 -32 -36 -8
-50 -41 -27 -66 22 -24 20 -44 -4 -59 -26 -16 -25 -36 3 -73 l22 -31 -30 -24
-30 -23 33 -34 c40 -42 41 -65 2 -78 -16 -6 -30 -15 -30 -20 0 -6 16 -33 35
-62 39 -57 42 -73 21 -96 -13 -14 -12 -22 5 -60 26 -58 24 -70 -11 -82 -38
-14 -38 -30 2 -92 l32 -50 -22 -17 c-25 -21 -27 -39 -9 -88 8 -25 9 -36 1 -39
-6 -2 -19 -10 -29 -17 -17 -12 -17 -17 -5 -61 13 -47 13 -48 -14 -70 -27 -21
-27 -24 -20 -93 6 -63 4 -72 -11 -78 -14 -6 -16 -15 -10 -51 4 -29 2 -49 -6
-59 -13 -16 -49 -19 -49 -4 0 6 -4 10 -10 10 -5 0 -10 -21 -10 -46 0 -42 -3
-47 -30 -57 -23 -9 -31 -20 -36 -45 -6 -28 -14 -38 -50 -53 -26 -12 -74 -21
-118 -23 -40 -2 -83 -9 -94 -15 -29 -15 -57 -14 -72 4 -10 13 -9 19 6 36 18
20 18 21 -1 35 -19 14 -23 11 -67 -36 -26 -27 -52 -50 -58 -50 -32 0 12 93 70
149 23 22 40 47 40 60 0 12 16 43 35 68 19 25 37 62 41 82 3 20 13 50 21 67
13 24 13 35 4 53 -10 18 -9 27 5 49 14 21 17 49 17 147 -1 181 -20 663 -28
675 -11 18 -23 11 -30 -19 -12 -55 -55 -67 -55 -15 0 13 -5 24 -10 24 -11 0
-40 -28 -56 -56 -11 -17 -14 -17 -35 -5 -20 12 -24 11 -36 -5 -7 -10 -13 -27
-13 -38 0 -30 -16 -50 -33 -43 -20 8 -29 -5 -62 -83 -36 -87 -67 -126 -112
-141 -21 -6 -44 -18 -52 -26 -7 -8 -20 -12 -27 -9 -11 4 -14 -6 -14 -44 0 -48
-1 -50 -29 -50 -20 0 -30 -6 -34 -20 -8 -29 -41 -25 -76 11 -28 28 -31 36 -31
95 0 124 50 284 125 399 55 86 239 263 311 301 42 21 60 37 62 53 4 22 3 22
-22 6 -24 -16 -28 -16 -51 -1 -14 9 -25 20 -25 24 0 4 -17 8 -37 8 -21 0 -52
7 -69 14 -30 13 -34 12 -64 -13 -27 -23 -40 -27 -99 -27 -37 0 -72 5 -78 11
-9 9 -16 2 -29 -30 -14 -35 -20 -41 -45 -41 -17 0 -43 -10 -59 -21 -28 -21
-30 -21 -55 -5 -32 21 -41 16 -49 -28 -9 -49 -27 -60 -82 -51 -60 9 -74 14
-74 30 0 7 18 53 41 102 66 143 168 267 283 340 73 48 247 116 337 133 85 16
317 23 386 12 51 -9 156 -46 251 -89 8 -3 12 4 12 21 0 41 36 135 74 191 18
28 45 90 60 137 18 59 40 104 70 144 64 88 203 217 265 249 30 15 120 45 200
66 170 45 212 45 361 1z"/>
</g>
</svg>
